<mxfile host="app.diagrams.net" modified="2023-01-15T20:09:40.613Z" agent="5.0 (Windows NT 10.0; Win64; x64) AppleWebKit/537.36 (KHTML, like Gecko) Chrome/109.0.0.0 Safari/537.36" version="20.7.4" etag="v10CFKu7jp2KnPkJY_Ay" type="github">
  <diagram id="fNSa_5snqK9Wg6iMNyFw" name="第 1 页">
    <mxGraphModel dx="1434" dy="788" grid="1" gridSize="10" guides="1" tooltips="1" connect="1" arrows="1" fold="1" page="1" pageScale="1" pageWidth="827" pageHeight="1169" math="0" shadow="0">
      <root>
        <mxCell id="0" />
        <mxCell id="1" parent="0" />
        <mxCell id="8mValroFxDrNvVBAl6Sn-6" style="edgeStyle=orthogonalEdgeStyle;rounded=0;orthogonalLoop=1;jettySize=auto;html=1;exitX=1;exitY=0.5;exitDx=0;exitDy=0;entryX=0;entryY=0.5;entryDx=0;entryDy=0;" edge="1" parent="1" source="8mValroFxDrNvVBAl6Sn-1" target="8mValroFxDrNvVBAl6Sn-2">
          <mxGeometry relative="1" as="geometry" />
        </mxCell>
        <mxCell id="8mValroFxDrNvVBAl6Sn-1" value="etl-notebook" style="rounded=0;whiteSpace=wrap;html=1;" vertex="1" parent="1">
          <mxGeometry x="40" y="395" width="120" height="60" as="geometry" />
        </mxCell>
        <mxCell id="8mValroFxDrNvVBAl6Sn-7" style="edgeStyle=orthogonalEdgeStyle;rounded=0;orthogonalLoop=1;jettySize=auto;html=1;exitX=1;exitY=0.5;exitDx=0;exitDy=0;entryX=0;entryY=0.5;entryDx=0;entryDy=0;" edge="1" parent="1" source="8mValroFxDrNvVBAl6Sn-2" target="8mValroFxDrNvVBAl6Sn-5">
          <mxGeometry relative="1" as="geometry" />
        </mxCell>
        <mxCell id="8mValroFxDrNvVBAl6Sn-13" style="edgeStyle=orthogonalEdgeStyle;rounded=0;orthogonalLoop=1;jettySize=auto;html=1;exitX=0.25;exitY=1;exitDx=0;exitDy=0;" edge="1" parent="1" source="8mValroFxDrNvVBAl6Sn-2" target="8mValroFxDrNvVBAl6Sn-12">
          <mxGeometry relative="1" as="geometry" />
        </mxCell>
        <mxCell id="8mValroFxDrNvVBAl6Sn-2" value="" style="rounded=0;whiteSpace=wrap;html=1;dashed=1;" vertex="1" parent="1">
          <mxGeometry x="230" y="320" width="320" height="210" as="geometry" />
        </mxCell>
        <mxCell id="8mValroFxDrNvVBAl6Sn-4" value="Belt" style="rounded=0;whiteSpace=wrap;html=1;" vertex="1" parent="1">
          <mxGeometry x="330" y="200" width="120" height="60" as="geometry" />
        </mxCell>
        <mxCell id="8mValroFxDrNvVBAl6Sn-5" value="sensedata" style="rounded=0;whiteSpace=wrap;html=1;" vertex="1" parent="1">
          <mxGeometry x="620" y="395" width="120" height="60" as="geometry" />
        </mxCell>
        <mxCell id="8mValroFxDrNvVBAl6Sn-8" value="" style="endArrow=classic;startArrow=classic;html=1;rounded=0;entryX=0.5;entryY=1;entryDx=0;entryDy=0;exitX=0.5;exitY=0;exitDx=0;exitDy=0;" edge="1" parent="1" source="8mValroFxDrNvVBAl6Sn-2" target="8mValroFxDrNvVBAl6Sn-4">
          <mxGeometry width="50" height="50" relative="1" as="geometry">
            <mxPoint x="390" y="500" as="sourcePoint" />
            <mxPoint x="440" y="450" as="targetPoint" />
          </mxGeometry>
        </mxCell>
        <mxCell id="8mValroFxDrNvVBAl6Sn-12" value="task-db" style="shape=cylinder3;whiteSpace=wrap;html=1;boundedLbl=1;backgroundOutline=1;size=15;" vertex="1" parent="1">
          <mxGeometry x="280" y="590" width="60" height="80" as="geometry" />
        </mxCell>
        <mxCell id="8mValroFxDrNvVBAl6Sn-14" value="public&lt;br&gt;oss" style="shape=cylinder3;whiteSpace=wrap;html=1;boundedLbl=1;backgroundOutline=1;size=15;" vertex="1" parent="1">
          <mxGeometry x="800" y="330" width="60" height="80" as="geometry" />
        </mxCell>
        <mxCell id="8mValroFxDrNvVBAl6Sn-16" value="" style="endArrow=classic;html=1;rounded=0;entryX=1;entryY=0.5;entryDx=0;entryDy=0;exitX=0;exitY=0.5;exitDx=0;exitDy=0;exitPerimeter=0;" edge="1" parent="1" source="8mValroFxDrNvVBAl6Sn-14" target="8mValroFxDrNvVBAl6Sn-5">
          <mxGeometry width="50" height="50" relative="1" as="geometry">
            <mxPoint x="390" y="500" as="sourcePoint" />
            <mxPoint x="440" y="450" as="targetPoint" />
          </mxGeometry>
        </mxCell>
        <mxCell id="8mValroFxDrNvVBAl6Sn-17" value="" style="endArrow=classic;html=1;rounded=0;exitX=1;exitY=0.5;exitDx=0;exitDy=0;" edge="1" parent="1" source="8mValroFxDrNvVBAl6Sn-5">
          <mxGeometry width="50" height="50" relative="1" as="geometry">
            <mxPoint x="810" y="500" as="sourcePoint" />
            <mxPoint x="800" y="490" as="targetPoint" />
          </mxGeometry>
        </mxCell>
        <mxCell id="8mValroFxDrNvVBAl6Sn-18" value="petrel&lt;br&gt;oss" style="shape=cylinder3;whiteSpace=wrap;html=1;boundedLbl=1;backgroundOutline=1;size=15;" vertex="1" parent="1">
          <mxGeometry x="800" y="450" width="60" height="80" as="geometry" />
        </mxCell>
      </root>
    </mxGraphModel>
  </diagram>
</mxfile>
